<?xml version="1.0" standalone="no"?>
<!DOCTYPE svg PUBLIC "-//W3C//DTD SVG 20010904//EN"
 "http://www.w3.org/TR/2001/REC-SVG-20010904/DTD/svg10.dtd">
<svg version="1.0" xmlns="http://www.w3.org/2000/svg"
 width="16.000000pt" height="16.000000pt" viewBox="0 0 16.000000 16.000000"
 preserveAspectRatio="xMidYMid meet">
<metadata>
Created by potrace 1.11, written by Peter Selinger 2001-2013
</metadata>
<g transform="translate(0.000000,16.000000) scale(0.001250,-0.001250)"
fill="#000000" stroke="none">
<path d="M6309 12787 c-139 -39 -238 -152 -257 -292 -13 -98 -7 -803 7 -854
24 -87 98 -177 181 -221 14 -8 48 -19 75 -26 48 -11 49 -12 20 -18 -101 -22
-228 -122 -257 -202 -13 -38 -16 -38 -85 -24 -129 27 -276 38 -473 35 -113 -2
-216 -5 -230 -8 -14 -2 -54 -7 -90 -11 -207 -24 -637 -141 -825 -225 -11 -5
-65 -28 -120 -51 -55 -23 -161 -72 -235 -108 -116 -57 -199 -102 -445 -241
-318 -180 -936 -626 -1360 -982 -131 -110 -313 -266 -325 -279 -8 -8 -33 -30
-55 -49 -76 -64 -233 -206 -355 -321 -21 -19 -88 -82 -150 -140 -62 -58 -163
-154 -224 -213 -400 -389 -433 -428 -475 -566 -92 -295 77 -611 376 -707 69
-22 215 -27 291 -9 34 8 93 30 131 50 81 40 95 53 496 443 114 111 330 315
420 396 17 15 48 44 70 65 22 20 117 104 210 186 94 81 184 160 200 174 17 14
84 71 150 125 66 54 129 105 140 115 11 9 81 64 155 122 775 605 1435 962
1980 1073 261 52 524 36 728 -46 63 -26 175 -81 191 -94 2 -2 -13 -22 -34 -45
-37 -42 -72 -107 -82 -157 -9 -43 -9 -782 0 -840 13 -93 70 -182 150 -236 40
-27 115 -56 150 -57 12 0 -5 -8 -39 -18 -90 -26 -148 -66 -202 -139 -63 -88
-66 -105 -66 -542 -1 -270 2 -412 10 -448 14 -62 52 -129 99 -177 42 -41 151
-95 196 -96 32 -1 32 -2 -9 -10 -162 -32 -280 -162 -294 -323 -4 -39 -4 -40
-63 -53 -71 -16 -128 -48 -179 -100 -41 -43 -82 -121 -90 -171 -6 -44 -16 -54
-16 -16 0 43 -51 143 -97 190 -50 53 -127 92 -200 102 -32 4 -231 7 -443 6
-371 -1 -387 -2 -442 -23 -105 -41 -218 -173 -218 -256 0 -40 -18 -29 -25 15
-9 56 -75 153 -132 194 -92 67 -114 70 -528 70 -418 1 -475 -3 -551 -40 -88
-43 -184 -169 -186 -245 -1 -38 -14 -28 -23 18 -22 118 -144 235 -270 259 -54
10 -778 11 -837 1 -114 -19 -208 -89 -259 -192 -17 -35 -31 -79 -32 -99 -1
-40 -17 -27 -17 14 -1 63 -79 180 -150 225 -88 56 -104 58 -520 59 -212 1
-408 -2 -436 -6 -164 -25 -289 -161 -300 -328 -10 -157 95 -308 246 -356 49
-16 103 -18 466 -18 l411 0 64 24 c116 45 218 173 223 280 1 38 11 30 14 -12
2 -18 13 -55 26 -83 50 -108 151 -185 267 -202 30 -5 225 -8 434 -7 427 0 449
3 541 73 77 58 140 169 136 239 -3 40 6 23 18 -33 14 -70 31 -101 80 -158 46
-52 105 -89 170 -107 50 -15 738 -21 847 -8 148 17 282 142 300 278 3 22 10
43 14 46 5 3 6 -1 3 -9 -7 -20 20 -110 46 -152 24 -39 97 -108 136 -128 71
-36 114 -40 499 -41 209 -1 404 2 433 7 142 21 266 141 288 278 l7 43 17 -62
c40 -146 170 -257 308 -261 18 -1 22 -7 22 -31 0 -43 33 -124 72 -175 46 -60
117 -106 196 -126 55 -15 61 -18 32 -18 -49 -1 -151 -52 -199 -100 -48 -48
-89 -125 -98 -184 -4 -23 -6 -222 -6 -442 0 -388 1 -402 22 -457 41 -107 137
-190 259 -223 33 -9 40 -13 21 -14 -77 -3 -186 -69 -237 -145 -63 -93 -65
-103 -66 -521 -1 -209 2 -406 6 -439 20 -149 121 -259 274 -297 l49 -13 -55
-11 c-72 -15 -113 -37 -169 -94 -54 -54 -87 -119 -99 -193 -4 -29 -7 -224 -7
-433 2 -427 5 -449 74 -541 47 -63 104 -102 188 -130 60 -20 64 -23 33 -23
-111 -3 -244 -122 -280 -251 -15 -52 -21 -769 -7 -858 20 -138 117 -244 264
-291 37 -11 142 -7 189 7 85 27 174 104 212 185 34 72 37 127 36 532 -1 432
-4 455 -74 544 -50 63 -103 99 -189 128 -60 20 -63 22 -30 22 49 1 146 52 191
100 49 51 85 124 95 192 10 66 9 779 -1 831 -19 103 -97 203 -195 252 -28 15
-53 26 -56 26 -34 -1 -45 2 -45 10 0 6 10 10 23 11 65 1 176 77 223 151 56 88
56 93 58 508 1 212 -2 411 -6 444 -19 143 -143 275 -275 293 -48 6 -67 19 -25
17 33 -1 112 27 150 55 79 56 133 141 149 236 14 83 9 813 -7 860 -22 68 -47
111 -94 157 -50 50 -96 76 -171 94 -27 7 -41 13 -30 14 66 5 149 47 204 102
46 47 90 128 97 180 8 53 10 55 66 60 146 12 285 142 305 286 l7 47 8 -43 c26
-149 152 -271 300 -290 29 -4 176 -7 326 -7 296 1 276 4 288 -50 2 -10 43
-163 89 -330 9 -33 18 -67 20 -75 9 -36 120 -431 166 -585 123 -416 300 -930
394 -1140 7 -16 34 -79 60 -138 129 -302 315 -651 482 -907 118 -182 309 -433
422 -555 69 -74 310 -315 356 -355 369 -319 749 -551 1199 -731 167 -67 281
-79 417 -44 192 49 353 213 404 410 17 67 18 219 2 269 -31 95 -44 124 -77
175 -34 52 -68 89 -130 142 -33 28 -90 56 -260 129 -120 51 -223 102 -335 164
-185 104 -407 275 -589 454 -497 489 -873 1196 -1196 2247 -77 252 -260 896
-260 917 0 2 105 4 233 5 213 0 237 2 289 22 111 43 203 154 224 271 l8 45 7
-46 c16 -103 97 -213 192 -257 72 -34 127 -38 532 -36 321 1 389 3 436 17 119
35 214 141 245 272 6 29 7 28 18 -20 29 -119 130 -224 246 -256 52 -14 757
-20 855 -7 117 16 213 86 267 196 30 60 33 75 32 152 0 69 -5 95 -26 141 -44
97 -122 166 -223 199 -30 10 -135 14 -420 14 -412 1 -465 -2 -539 -35 -90 -39
-196 -175 -196 -249 0 -11 -4 -20 -10 -20 -5 0 -10 11 -10 25 0 14 -13 51 -29
83 -46 89 -127 157 -221 183 -50 13 -754 20 -849 7 -78 -10 -174 -62 -223
-120 -40 -49 -78 -130 -78 -170 0 -28 -13 -15 -17 18 -13 96 -116 215 -221
255 -54 20 -73 22 -386 23 l-330 1 -22 80 c-74 270 -205 699 -267 880 -58 166
-188 518 -207 560 -5 11 -35 83 -66 160 -31 77 -62 154 -69 170 -8 17 -25 57
-38 90 -208 502 -535 1085 -803 1431 -222 286 -504 552 -739 697 l-51 31 1 86
c1 167 -22 245 -96 325 -46 50 -142 105 -184 105 -14 0 -25 5 -25 10 0 6 9 10
20 10 40 0 131 50 180 99 101 101 106 134 105 622 -1 384 -2 397 -24 456 -48
129 -168 218 -306 228 -42 3 -88 0 -116 -8z m508 -3599 c215 -337 443 -805
640 -1313 19 -49 47 -124 63 -165 106 -273 285 -815 305 -922 l7 -34 -164 0
c-210 1 -273 -5 -339 -36 -98 -45 -172 -139 -195 -248 -8 -33 -13 -44 -13 -28
-1 37 -36 127 -64 165 -58 78 -178 145 -259 145 -41 -1 -41 -1 -52 81 -7 53
-48 136 -87 177 -46 49 -101 81 -173 100 l-60 17 43 7 c132 21 254 146 279
286 13 78 7 819 -7 865 -41 128 -137 218 -266 249 -48 11 -53 15 -27 15 51 1
155 54 202 102 46 47 84 118 97 184 5 22 8 131 8 243 -1 111 -1 202 1 202 1 0
29 -42 61 -92z"/>
</g>
</svg>
